<svg xmlns="http://www.w3.org/2000/svg" width="512" height="512" viewBox="0 0 512 512">
  <defs>
    <linearGradient id="gradient" x1="0%" y1="0%" x2="100%" y2="100%">
      <stop offset="0%" stop-color="#4A90E2"/>
      <stop offset="100%" stop-color="#50E3C2"/>
    </linearGradient>
  </defs>
  <circle cx="256" cy="256" r="240" fill="url(#gradient)"/>
  <g fill="white">
    <path d="M320 180c-11.046 0-20 8.954-20 20v100c0 11.046 8.954 20 20 20s20-8.954 20-20V200c0-11.046-8.954-20-20-20z"/>
    <path d="M192 180c-11.046 0-20 8.954-20 20v100c0 11.046 8.954 20 20 20s20-8.954 20-20V200c0-11.046-8.954-20-20-20z"/>
    <path d="M256 280c-33.137 0-60-26.863-60-60s26.863-60 60-60 60 26.863 60 60-26.863 60-60 60z"/>
    <path d="M256 140c-66.274 0-120 53.726-120 120s53.726 120 120 120 120-53.726 120-120-53.726-120-120-120z" fill-opacity="0.3"/>
  </g>
  <text x="256" y="380" font-family="Arial, sans-serif" font-size="48" font-weight="bold" text-anchor="middle" fill="white">GlobalClaw</text>
</svg>